<svg width="16" height="11" viewBox="0 0 16 11" fill="none" xmlns="http://www.w3.org/2000/svg">
<path d="M11.0712 0.602813C10.9908 0.535105 10.8892 0.501251 10.7665 0.501251C10.6184 0.501251 10.4914 0.560495 10.3856 0.678985L4.19672 8.31521L1.79096 6.04275C1.74864 5.9962 1.69786 5.96023 1.63861 5.93484C1.57937 5.90945 1.51801 5.89676 1.45453 5.89676C1.32335 5.89676 1.20909 5.94542 1.11176 6.04275L0.80072 6.35379C0.707621 6.44266 0.661072 6.5548 0.661072 6.69021C0.661072 6.82563 0.707621 6.93989 0.80072 7.03299L3.79682 10.0291C3.94493 10.1645 4.11208 10.2322 4.29828 10.2322C4.40408 10.2322 4.50564 10.209 4.60297 10.1624C4.7003 10.1159 4.7807 10.0503 4.84418 9.96558L11.4901 1.54861C11.5621 1.45128 11.598 1.35184 11.598 1.25027C11.598 1.0937 11.5346 0.968861 11.4076 0.875762L11.0712 0.602813ZM8.62104 8.27713C8.43061 8.15864 8.24864 8.04015 8.07514 7.92166C7.99473 7.84126 7.88894 7.80105 7.75775 7.80105C7.60964 7.80105 7.48904 7.85395 7.39594 7.95975L7.10395 8.28982C7.01931 8.38715 6.97699 8.49506 6.97699 8.61355C6.97699 8.74474 7.02354 8.859 7.11664 8.95633L8.19574 10.0291C8.33116 10.1645 8.4962 10.2322 8.69086 10.2322C8.79665 10.2322 8.89822 10.209 8.99555 10.1624C9.09288 10.1159 9.1754 10.0503 9.24311 9.96558L15.8637 1.574C15.9356 1.48937 15.9716 1.38992 15.9716 1.27566C15.9716 1.13178 15.9123 1.00695 15.7938 0.901153L15.4384 0.628204C15.358 0.560495 15.2585 0.526641 15.14 0.526641C14.9962 0.526641 14.8713 0.585886 14.7655 0.704376L8.62104 8.27713Z" fill="#53BDEB"/>
</svg>
