<svg width="28" height="28" viewBox="0 0 28 28" fill="none" xmlns="http://www.w3.org/2000/svg">
<path d="M7.27181 6.80631L7.79098 4.20931C7.89674 3.68016 8.18264 3.20403 8.6 2.86198C9.01735 2.51992 9.54036 2.3331 10.08 2.33331H17.92C18.4596 2.3331 18.9826 2.51992 19.4 2.86198C19.8173 3.20403 20.1032 3.68016 20.209 4.20931L20.7281 6.80631C20.8096 7.21324 21.005 7.58867 21.2914 7.88896C21.5779 8.18925 21.9437 8.40206 22.3463 8.50265C23.2948 8.73992 24.1368 9.28744 24.7384 10.0582C25.34 10.8289 25.6667 11.7786 25.6666 12.7563V21C25.6666 22.2377 25.175 23.4246 24.2998 24.2998C23.4246 25.175 22.2377 25.6666 21 25.6666H6.99998C5.7623 25.6666 4.57532 25.175 3.70015 24.2998C2.82498 23.4246 2.33331 22.2377 2.33331 21V12.7563C2.33322 11.7786 2.65995 10.8289 3.26156 10.0582C3.86318 9.28744 4.70515 8.73992 5.65365 8.50265C6.05628 8.40206 6.42209 8.18925 6.70854 7.88896C6.99499 7.58867 7.19032 7.21324 7.27181 6.80631V6.80631Z" stroke="#767676" stroke-width="2" stroke-linecap="round" stroke-linejoin="round"/>
<path d="M14 21C16.5773 21 18.6666 18.9106 18.6666 16.3333C18.6666 13.756 16.5773 11.6666 14 11.6666C11.4227 11.6666 9.33331 13.756 9.33331 16.3333C9.33331 18.9106 11.4227 21 14 21Z" stroke="#767676" stroke-width="2" stroke-linecap="round" stroke-linejoin="round"/>
<path d="M12.8333 7H15.1666" stroke="#767676" stroke-width="2" stroke-linecap="round" stroke-linejoin="round"/>
</svg>
