<svg width="28" height="26" viewBox="0 0 28 26" fill="none" xmlns="http://www.w3.org/2000/svg">
<path d="M2.99545 0.16332L27.1538 11.7185C27.3977 11.8352 27.6035 12.0186 27.7476 12.2473C27.8918 12.4761 27.9682 12.7409 27.9682 13.0113C27.9682 13.2816 27.8918 13.5465 27.7476 13.7752C27.6035 14.004 27.3977 14.1873 27.1538 14.304L2.99545 25.8592C2.74769 25.978 2.47102 26.023 2.19839 25.989C1.92575 25.9549 1.66865 25.8432 1.4577 25.6672C1.24675 25.4912 1.09084 25.2582 1.00855 24.9961C0.926255 24.7339 0.921043 24.4537 0.993532 24.1887L3.41051 15.3279C3.4401 15.2193 3.501 15.1218 3.58561 15.0476C3.67023 14.9734 3.77482 14.9257 3.88634 14.9106L15.5929 13.3203C15.6417 13.3134 15.6879 13.2941 15.7271 13.2642C15.7662 13.2342 15.797 13.1947 15.8165 13.1494L15.8371 13.0772C15.8461 13.0132 15.8333 12.948 15.8006 12.8922C15.7679 12.8364 15.7173 12.7933 15.6571 12.7699L15.594 12.7527L3.89895 11.1636C3.78764 11.1482 3.68329 11.1004 3.5989 11.0262C3.5145 10.952 3.45378 10.8546 3.42427 10.7462L0.993532 1.83388C0.921043 1.56886 0.926255 1.2886 1.00855 1.02646C1.09084 0.764324 1.24675 0.531366 1.4577 0.355333C1.66865 0.179299 1.92575 0.0676096 2.19839 0.0335669C2.47102 -0.000475727 2.74769 0.0445633 2.99545 0.16332Z" fill="white"/>
</svg>
