<svg width="59" height="59" viewBox="0 0 59 59" fill="none" xmlns="http://www.w3.org/2000/svg">
<circle cx="29.5" cy="29.5" r="29.5" fill="#3CF887"/>
<path d="M20.9955 17.1633L45.1538 28.7185C45.3977 28.8352 45.6035 29.0186 45.7476 29.2473C45.8918 29.4761 45.9682 29.7409 45.9682 30.0113C45.9682 30.2816 45.8918 30.5465 45.7476 30.7752C45.6035 31.004 45.3977 31.1873 45.1538 31.304L20.9955 42.8592C20.7477 42.978 20.471 43.023 20.1984 42.989C19.9258 42.9549 19.6687 42.8432 19.4577 42.6672C19.2467 42.4912 19.0908 42.2582 19.0085 41.9961C18.9263 41.7339 18.921 41.4537 18.9935 41.1887L21.4105 32.3279C21.4401 32.2193 21.501 32.1218 21.5856 32.0476C21.6702 31.9734 21.7748 31.9257 21.8863 31.9106L33.5929 30.3203C33.6417 30.3134 33.6879 30.2941 33.7271 30.2642C33.7662 30.2342 33.797 30.1947 33.8165 30.1494L33.8371 30.0772C33.8461 30.0132 33.8333 29.948 33.8006 29.8922C33.7679 29.8364 33.7173 29.7933 33.6571 29.7699L33.594 29.7527L21.899 28.1636C21.7876 28.1482 21.6833 28.1004 21.5989 28.0262C21.5145 27.952 21.4538 27.8546 21.4243 27.7462L18.9935 18.8339C18.921 18.5689 18.9263 18.2886 19.0085 18.0265C19.0908 17.7643 19.2467 17.5314 19.4577 17.3553C19.6687 17.1793 19.9258 17.0676 20.1984 17.0336C20.471 16.9995 20.7477 17.0446 20.9955 17.1633Z" fill="white"/>
</svg>
